<svg id="Capa_1" enable-background="new 0 0 512 512" height="512" viewBox="0 0 512 512" width="512" xmlns="http://www.w3.org/2000/svg" xmlns:xlink="http://www.w3.org/1999/xlink"><linearGradient id="SVGID_1_" gradientUnits="userSpaceOnUse" x1="74.981" x2="437.019" y1="74.981" y2="437.019"><stop offset="0" stop-color="#ff9959"/><stop offset="1" stop-color="#ff776b"/></linearGradient><linearGradient id="SVGID_2_" gradientUnits="userSpaceOnUse" x1="59.687" x2="452.313" y1="256" y2="256"><stop offset="0" stop-color="#6c90b8"/><stop offset="1" stop-color="#587aa1"/></linearGradient><linearGradient id="SVGID_3_" gradientUnits="userSpaceOnUse" x1="141.019" x2="370.981" y1="255.959" y2="255.959"><stop offset="0" stop-color="#97bedb"/><stop offset="1" stop-color="#81a6c7"/></linearGradient><g><circle cx="256" cy="256" fill="url(#SVGID_1_)" r="256"/><g><path d="m416.973 255.959c0-3.743-.134-7.527-.399-11.31l35.739-30.599-1.745-6.912c-2.392-9.473-5.49-18.837-9.216-27.844-3.73-8.99-8.16-17.803-13.166-26.193l-3.654-6.122-46.832 3.629c-4.994-5.762-10.399-11.177-16.155-16.18l3.635-46.918-6.122-3.653c-8.39-5.007-17.203-9.438-26.204-13.172-8.995-3.72-18.359-6.819-27.831-9.211l-6.912-1.746-30.544 35.674c-3.871-.278-7.72-.415-11.567-.415s-7.695.138-11.567.415l-30.544-35.674-6.912 1.746c-9.472 2.392-18.836 5.491-27.831 9.211-9.002 3.734-17.814 8.164-26.204 13.172l-6.122 3.653 3.635 46.918c-5.755 5.003-11.161 10.418-16.155 16.18l-46.832-3.629-3.654 6.122c-5.006 8.39-9.437 17.202-13.166 26.193-3.725 9.007-6.824 18.371-9.216 27.844l-1.745 6.912 35.739 30.599c-.265 3.782-.399 7.567-.399 11.31 0 3.824.14 7.695.418 11.566l-35.675 30.544 1.746 6.912c2.392 9.472 5.491 18.836 9.211 27.832 3.734 9.002 8.164 17.814 13.172 26.204l3.653 6.122 46.918-3.635c5.003 5.755 10.418 11.161 16.18 16.155l-3.629 46.832 6.122 3.653c8.389 5.007 17.201 9.436 26.192 13.167 9.007 3.725 18.371 6.824 27.844 9.216l6.912 1.745 30.599-35.739c3.782.265 7.545.397 11.309.397s7.527-.132 11.309-.397l30.599 35.739 6.912-1.745c9.473-2.392 18.837-5.49 27.844-9.216 8.991-3.73 17.803-8.16 26.192-13.167l6.122-3.653-3.629-46.832c5.762-4.993 11.177-10.4 16.18-16.155l46.918 3.635 3.653-6.122c5.008-8.39 9.438-17.202 13.172-26.204 3.72-8.995 6.819-18.359 9.211-27.832l1.746-6.912-35.675-30.544c.28-3.871.42-7.742.42-11.566zm-160.973 91.984c-50.72 0-91.985-41.264-91.985-91.984s41.265-91.985 91.985-91.985 91.984 41.264 91.984 91.985-41.264 91.984-91.984 91.984z" fill="url(#SVGID_2_)"/><path d="m256 140.978c-63.401 0-114.981 51.58-114.981 114.981s51.58 114.98 114.981 114.98 114.981-51.58 114.981-114.98c0-63.401-51.58-114.981-114.981-114.981zm0 183.969c-38.04 0-68.988-30.948-68.988-68.988s30.948-68.988 68.988-68.988 68.988 30.948 68.988 68.988-30.948 68.988-68.988 68.988z" fill="url(#SVGID_3_)"/></g></g></svg>