<svg id="Layer_1" height="512" viewBox="0 0 512 512" width="512" xmlns="http://www.w3.org/2000/svg" data-name="Layer 1"><path d="m400.91 77.72a24.4 24.4 0 0 1 0 34.47l-21.99 21.98-.11.02a41.191 41.191 0 0 0 -34.37-34.37l.02-.11 21.98-21.99a24.39 24.39 0 0 1 34.47 0z" fill="#de3c44"/><path d="m264.59 272.28a40.193 40.193 0 0 0 -9.76-15.8l-32.67-32.68a40.379 40.379 0 0 0 -53.89-2.86l-4.65 3.75 90.32 90.32 3.75-4.65a40.31 40.31 0 0 0 6.9-38.08z" fill="#de3c44"/><path d="m378.81 134.19a41.158 41.158 0 0 1 -11.57 35.44l-102.65 102.65a40.193 40.193 0 0 0 -9.76-15.8l-32.67-32.68a40.283 40.283 0 0 0 -15.8-9.75l102.64-102.65a41.179 41.179 0 0 1 69.81 22.79z" fill="#ed6337"/><path d="m106.169 292.342h119.752v38.901h-119.752z" fill="#b0b5ca" transform="matrix(.707 -.707 .707 .707 -171.837 208.734)"/><path d="m116.18 346.61 15.05 15.05-82.4 82.4-23.77-6.34z" fill="#6d7486"/><path d="m329.31 149.32a11.757 11.757 0 0 1 0 16.64l-19.8 19.8a11.766 11.766 0 0 1 -16.64-16.64l19.81-19.8a11.745 11.745 0 0 1 16.63 0z" fill="#fea92a"/><path d="m400.91 77.72a24.39 24.39 0 0 0 -34.47 0l-21.98 21.99-.02.11a40.933 40.933 0 0 1 19.381 8.526l16.619-16.626a24.379 24.379 0 0 1 25.967-5.5 24.289 24.289 0 0 0 -5.497-8.5z" fill="#f47f8b"/><path d="m222.16 223.8a40.379 40.379 0 0 0 -53.89-2.86l-4.65 3.75 14 14 4.65-3.75a40.371 40.371 0 0 1 53.818 2.792z" fill="#f47f8b"/><path d="m367.24 111.4a41.167 41.167 0 0 0 -58.24 0l-102.64 102.65a40.283 40.283 0 0 1 15.8 9.75l1.225 1.225 99.615-99.625a41.2 41.2 0 0 1 50.387-6.158 41.219 41.219 0 0 0 -6.147-7.842z" fill="#f98c6e"/><path d="m99.414 295.14h119.754v19.799h-119.754z" fill="#dde7f2" transform="matrix(.707 -.707 .707 .707 -169.04 201.98)"/><g fill="#284268"><path d="m320.994 139.87a17.624 17.624 0 0 0 -12.556 5.206l-19.81 19.8a17.77 17.77 0 0 0 12.549 30.333h.01a17.657 17.657 0 0 0 12.565-5.209l19.8-19.8a17.771 17.771 0 0 0 -12.558-30.334zm4.073 21.847-19.8 19.8a5.733 5.733 0 0 1 -4.08 1.692 5.715 5.715 0 0 1 -4.067-1.688l-.01-.01a5.758 5.758 0 0 1 0-8.148l19.816-19.806a5.763 5.763 0 1 1 8.14 8.159z"/><path d="m472.312 70.6a51.5 51.5 0 0 0 -71.8-.918 30.444 30.444 0 0 0 -38.317 3.8l-20.029 20.036a47.343 47.343 0 0 0 -37.409 13.64l-100.157 100.165a46.129 46.129 0 0 0 -40.1 8.947l-4.649 3.75a6 6 0 0 0 -.477 8.913l26.771 26.767-80.437 80.437a6 6 0 0 0 0 8.486l1.988 1.986-86.879 86.869a6 6 0 0 0 2.7 10.04l23.77 6.339a6 6 0 0 0 5.788-1.554l78.163-78.162 1.986 1.985a6 6 0 0 0 8.481 0l80.438-80.429 27.557 27.555a6 6 0 0 0 4.242 1.758c.107 0 .213 0 .321-.009a6 6 0 0 0 4.35-2.225l3.747-4.647a46.112 46.112 0 0 0 8.96-40.09l100.162-100.166a46.859 46.859 0 0 0 13.818-33.353c0-1.359-.065-2.717-.181-4.063l20.038-20.029a30.413 30.413 0 0 0 3.836-38.259 39.493 39.493 0 0 1 54.833.912l1.489 1.49a39.506 39.506 0 0 1 0 55.786l-175.5 175.5a45.778 45.778 0 1 0 64.733 64.748 6 6 0 1 0 -8.481-8.49 33.778 33.778 0 1 1 -47.767-47.772l175.5-175.5a51.523 51.523 0 0 0 0-72.753zm-425.279 366.771-10.372-2.771 79.52-79.511 6.567 6.564zm90.424-77.971-19.021-19.02 76.194-76.195 19.025 19.025zm225.543-194.013-96.536 96.535a46.458 46.458 0 0 0 -7.389-9.684l-20.483-20.49a6 6 0 1 0 -8.486 8.484l20.484 20.491a34.34 34.34 0 0 1 2.869 45.318l-80.868-80.868a34.38 34.38 0 0 1 45.333 2.874 6 6 0 0 0 8.476-8.5 46.6 46.6 0 0 0 -9.679-7.375l96.526-96.536a35.308 35.308 0 0 1 30.279-9.891 35.18 35.18 0 0 1 19.474 59.642zm33.671-57.441-14.824 14.818a47.359 47.359 0 0 0 -25.978-25.979l14.814-14.82a18.374 18.374 0 0 1 25.988 25.981z"/></g></svg>